<svg xmlns="http://www.w3.org/2000/svg" width="235" height="128" fill="none" viewBox="0 0 235 128"><path fill="#000" d="M217.961 99.46V37.403h14.078v65.385c0 8.575-1.664 14.846-5.12 18.557-3.967 4.479-9.47 6.655-16.509 6.655l-3.84-12.67q6.336 0 8.831-3.456c1.664-2.431 2.56-6.527 2.56-12.414m15.856-85.232a8.845 8.845 0 0 1-8.845 8.845 8.845 8.845 0 1 1 0-17.69 8.845 8.845 0 0 1 8.845 8.845"/><path fill="#000" fill-rule="evenodd" d="m122.74 98.087 11.386-23.049h43.282l11.247 23.05h14.686L155.766.761 108.19 98.087zm17.284-35.103 15.742-32.076 15.741 32.076z" clip-rule="evenodd"/><path fill="#000" d="M62.522 55.402c9.009 2.302 16.455 4.148 31.954 7.585-15.499 3.437-22.945 5.282-31.954 7.584a8.57 8.57 0 0 0-6.176 6.175c-2.302 9.007-4.147 16.457-7.584 31.955-3.437-15.498-5.282-22.948-7.584-31.955a8.57 8.57 0 0 0-6.176-6.175c-9.01-2.302-16.455-4.147-31.954-7.584 15.499-3.437 22.945-5.283 31.954-7.585a8.57 8.57 0 0 0 6.176-6.175c2.302-9.007 4.147-16.457 7.584-31.955 3.437 15.498 5.282 22.948 7.584 31.955a8.57 8.57 0 0 0 6.176 6.175"/></svg>